<svg version="1.2" preserveAspectRatio="xMidYMid meet" height="500" viewBox="0 0 375 374.999991" zoomAndPan="magnify" width="500" xmlns:xlink="http://www.w3.org/1999/xlink" xmlns="http://www.w3.org/2000/svg"><defs><clipPath id="37f95e3199"><path d="M 40.351562 239 L 117 239 L 117 317 L 40.351562 317 Z M 40.351562 239"></path></clipPath><clipPath id="6c21319523"><path d="M 201 10.625 L 279 10.625 L 279 88 L 201 88 Z M 201 10.625"></path></clipPath><clipPath id="953b6295c4"><path d="M 209 236 L 337.351562 236 L 337.351562 364.625 L 209 364.625 Z M 209 236"></path></clipPath></defs><g id="5dba7912c2"><g clip-path="url(#37f95e3199)" clip-rule="nonzero"><path d="M 78.675781 239.371094 C 74.941406 270.925781 71.914062 273.953125 40.359375 277.6875 C 71.914062 281.421875 74.941406 284.449219 78.675781 316.003906 C 82.410156 284.449219 85.4375 281.421875 116.992188 277.6875 C 85.4375 273.953125 82.410156 270.925781 78.675781 239.371094 Z M 78.675781 239.371094" style="stroke:none;fill-rule:nonzero;fill:#df8096;fill-opacity:1;"></path></g><g clip-path="url(#6c21319523)" clip-rule="nonzero"><path d="M 239.835938 87.292969 C 243.570312 55.738281 246.597656 52.710938 278.152344 48.976562 C 246.597656 45.242188 243.570312 42.214844 239.835938 10.660156 C 236.105469 42.214844 233.078125 45.242188 201.523438 48.976562 C 233.078125 52.710938 236.105469 55.738281 239.835938 87.292969 Z M 239.835938 87.292969" style="stroke:none;fill-rule:nonzero;fill:#df8096;fill-opacity:1;"></path></g><path d="M 181.328125 84.1875 C 171.265625 169.210938 163.109375 177.367188 78.085938 187.429688 C 163.109375 197.488281 171.265625 205.648438 181.328125 290.667969 C 191.386719 205.648438 199.546875 197.488281 284.566406 187.429688 C 199.546875 177.367188 191.386719 169.210938 181.328125 84.1875 Z M 181.328125 84.1875" style="stroke:none;fill-rule:nonzero;fill:#df8096;fill-opacity:1;"></path><g clip-path="url(#953b6295c4)" clip-rule="nonzero"><path d="M 273.535156 236.367188 C 267.308594 288.957031 262.265625 294.003906 209.675781 300.226562 C 262.265625 306.453125 267.3125 311.496094 273.535156 364.085938 C 279.757812 311.496094 284.804688 306.449219 337.394531 300.226562 C 284.804688 294.003906 279.757812 288.957031 273.535156 236.367188 Z M 273.535156 236.367188" style="stroke:none;fill-rule:nonzero;fill:#df8096;fill-opacity:1;"></path></g></g></svg>